<svg width="512" height="512" viewBox="0 0 512 512" xmlns="http://www.w3.org/2000/svg">
  <!-- Background Circle -->
  <circle cx="256" cy="256" r="256" fill="#2563eb"/>
  
  <!-- Leaf Symbol -->
  <g transform="translate(256, 256)">
    <!-- Main Leaf -->
    <path d="M -80,-120 Q -100,-60 -80,0 Q -60,60 0,80 Q 20,40 0,0 Q -20,-40 -40,-80 Q -60,-100 -80,-120 Z" 
          fill="#dbeafe" opacity="0.9"/>
    
    <!-- Leaf Vein -->
    <path d="M -80,-120 Q -50,-60 0,0 L 0,80" 
          stroke="#60a5fa" stroke-width="4" fill="none" opacity="0.7"/>
    
    <!-- Secondary Leaf -->
    <path d="M 80,-120 Q 100,-60 80,0 Q 60,60 0,80 Q -20,40 0,0 Q 20,-40 40,-80 Q 60,-100 80,-120 Z" 
          fill="#bfdbfe" opacity="0.8"/>
    
    <!-- Rupee Symbol -->
    <g transform="translate(60, 100)">
      <text x="0" y="0" font-family="Arial, sans-serif" font-size="80" font-weight="bold" fill="white" text-anchor="middle">₹</text>
    </g>
  </g>
  
  <!-- VerdantView Text (optional, small) -->
  <text x="256" y="460" font-family="Arial, sans-serif" font-size="32" font-weight="bold" fill="white" text-anchor="middle" opacity="0.9">VerdantView</text>
</svg>
